<?xml version="1.0" encoding="UTF-8"?>
<svg id="Layer_1" data-name="Layer 1" xmlns="http://www.w3.org/2000/svg" viewBox="0 0 30.48 30.48">
  <defs>
    <style>
      .cls-1 {
        stroke: #1d1d1b;
      }

      .cls-1, .cls-2, .cls-3, .cls-4, .cls-5 {
        fill: none;
      }

      .cls-1, .cls-2, .cls-4 {
        stroke-linejoin: round;
      }

      .cls-1, .cls-2, .cls-4, .cls-5 {
        stroke-linecap: round;
      }

      .cls-6 {
        fill: #1d1d1b;
      }

      .cls-2, .cls-3 {
        stroke: #575756;
      }

      .cls-7 {
        fill: #fff;
      }

      .cls-3, .cls-5 {
        stroke-miterlimit: 10;
      }

      .cls-4 {
        stroke: #ededed;
      }

      .cls-5 {
        stroke: #e30613;
      }
    </style>
  </defs>
  <rect class="cls-1" x="1.35" y="1.63" width="27.78" height="27.78"/>
  <g>
    <rect class="cls-7" x="3.19" y="11.11" width="24.09" height="16.81"/>
    <line class="cls-5" x1="25.87" y1="11.98" x2="4.61" y2="26.16"/>
    <line class="cls-5" x1="4.61" y1="11.98" x2="25.87" y2="26.16"/>
    <polyline class="cls-3" points="3.19 11.11 3.19 27.92 27.29 27.92"/>
  </g>
  <g>
    <path class="cls-6" d="M7.49,9.62v-.77c.09.08.19.15.32.21s.25.12.39.16.27.08.41.1.27.04.38.04c.4,0,.71-.07.9-.22s.3-.37.3-.65c0-.15-.03-.28-.1-.39s-.16-.21-.28-.31-.26-.18-.42-.27-.33-.17-.52-.27c-.2-.1-.38-.2-.55-.3s-.32-.21-.44-.34-.22-.26-.29-.42-.11-.34-.11-.54c0-.26.06-.48.17-.67s.26-.34.44-.47.39-.21.62-.27.47-.09.71-.09c.55,0,.95.07,1.21.2v.74c-.33-.23-.76-.34-1.27-.34-.14,0-.29.02-.43.04s-.27.08-.38.15-.2.15-.27.26-.11.24-.11.39c0,.14.03.27.08.37s.13.2.24.29.23.17.38.25.32.17.52.27c.2.1.39.2.57.31s.34.23.47.36.24.28.32.44.12.35.12.55c0,.28-.05.51-.16.7s-.25.35-.44.47-.4.21-.63.26-.49.08-.76.08c-.09,0-.2,0-.33-.02s-.26-.04-.4-.06-.26-.06-.38-.1-.22-.09-.29-.13Z"/>
    <path class="cls-6" d="M15.32,4.84h-1.62v5.01h-.66v-5.01h-1.61v-.59h3.89v.59Z"/>
    <path class="cls-6" d="M18.08,9.94c-.79,0-1.43-.26-1.91-.79s-.72-1.2-.72-2.04c0-.9.24-1.62.73-2.16s1.15-.8,1.99-.8c.77,0,1.4.26,1.87.78s.71,1.2.71,2.04c0,.91-.24,1.64-.73,2.17s-1.13.8-1.95.8ZM18.13,4.75c-.59,0-1.07.21-1.43.64s-.55.98-.55,1.67.18,1.25.54,1.67.82.63,1.4.63c.61,0,1.1-.2,1.45-.6s.53-.96.53-1.68-.17-1.31-.52-1.71-.82-.61-1.42-.61Z"/>
    <path class="cls-6" d="M22.51,7.73v2.12h-.66v-5.6h1.54c.6,0,1.06.15,1.39.44s.49.7.49,1.23-.18.97-.55,1.3-.86.51-1.48.51h-.74ZM22.51,4.84v2.3h.69c.45,0,.8-.1,1.04-.31s.36-.5.36-.88c0-.74-.44-1.11-1.31-1.11h-.77Z"/>
  </g>
  <g>
    <polyline class="cls-2" points="29.98 1.07 29.98 29.98 1.07 29.98"/>
    <polyline class="cls-4" points=".5 29.41 .5 .5 29.41 .5"/>
  </g>
</svg>