<?xml version="1.0" encoding="UTF-8"?>
<svg id="Layer_1" data-name="Layer 1" xmlns="http://www.w3.org/2000/svg" viewBox="0 0 30.48 30.48">
  <defs>
    <style>
      .cls-1 {
        stroke: #1d1d1b;
      }

      .cls-1, .cls-2, .cls-3, .cls-4 {
        fill: none;
      }

      .cls-1, .cls-2, .cls-4 {
        stroke-linecap: round;
        stroke-linejoin: round;
      }

      .cls-5 {
        fill: #1d1d1b;
      }

      .cls-2, .cls-3 {
        stroke: #575756;
      }

      .cls-6 {
        fill: #fff;
      }

      .cls-3 {
        stroke-miterlimit: 10;
      }

      .cls-4 {
        stroke: #ededed;
      }

      .cls-7 {
        fill: #312783;
      }
    </style>
  </defs>
  <rect class="cls-1" x="1.35" y="1.35" width="27.78" height="27.78"/>
  <g>
    <rect class="cls-6" x="3.19" y="10.82" width="24.09" height="16.81"/>
    <path class="cls-7" d="M2.77,27.63h24.77v-2.25s-1.41-1.82-2.07-1.71-1.3,2.16-1.98,1.98c-1.5-.4-1.53-5.63-3.06-5.39-1.23.19-.79,3.83-1.71,4.67-.66.61-2.77.76-3.57-.09-1.21-1.28-.64-5.52-1.82-6.83-.54-.6-2.67-.58-3.24,0-1.09,1.1-.68,5.17-1.75,6.29-.65.68-2.23.44-3.01-.09-1.51-1.02-2.56-6.83-2.56-6.83v10.25Z"/>
    <polyline class="cls-3" points="3.19 10.82 3.19 27.63 27.29 27.63"/>
  </g>
  <g>
    <path class="cls-5" d="M5.58,7.45v2.12h-.66V3.96h1.54c.6,0,1.06.15,1.39.44s.49.7.49,1.23-.18.97-.55,1.3-.86.51-1.48.51h-.74ZM5.58,4.56v2.3h.69c.45,0,.8-.1,1.04-.31s.36-.5.36-.88c0-.74-.44-1.11-1.31-1.11h-.77Z"/>
    <path class="cls-5" d="M11.4,6.21c-.11-.09-.27-.13-.48-.13-.27,0-.5.13-.69.39s-.28.61-.28,1.05v2.04h-.64v-4h.64v.82h.02c.09-.28.23-.5.42-.66s.4-.24.63-.24c.17,0,.29.02.38.05v.66Z"/>
    <path class="cls-5" d="M13.77,9.66c-.59,0-1.06-.19-1.42-.56s-.53-.87-.53-1.49c0-.67.18-1.2.55-1.57s.86-.57,1.49-.57,1.06.18,1.4.55.5.88.5,1.53-.18,1.15-.54,1.53-.84.58-1.45.58ZM13.81,6.01c-.41,0-.74.14-.98.42s-.36.67-.36,1.16.12.85.36,1.12.57.41.97.41.73-.13.96-.4.33-.65.33-1.14-.11-.89-.33-1.16-.54-.41-.96-.41Z"/>
    <path class="cls-5" d="M18.76,4.21c-.12-.07-.27-.11-.43-.11-.45,0-.67.28-.67.85v.62h.94v.55h-.94v3.45h-.64v-3.45h-.68v-.55h.68v-.65c0-.42.12-.75.36-.99s.54-.37.91-.37c.2,0,.35.02.46.07v.58Z"/>
    <path class="cls-5" d="M19.61,4.55c-.11,0-.21-.04-.29-.12s-.12-.18-.12-.3.04-.22.12-.3.18-.12.29-.12.22.04.3.12.12.18.12.3-.04.21-.12.29-.18.12-.3.12ZM19.93,9.57h-.64v-4h.64v4Z"/>
    <path class="cls-5" d="M21.86,9.57h-.64V3.64h.64v5.92Z"/>
    <path class="cls-5" d="M26.38,7.73h-2.82c.01.45.13.79.36,1.03s.54.36.95.36c.45,0,.86-.15,1.24-.45v.6c-.35.26-.82.38-1.39.38s-1.01-.18-1.33-.54-.48-.87-.48-1.53c0-.62.18-1.13.53-1.52s.79-.59,1.31-.59.93.17,1.21.51.43.81.43,1.41v.34ZM25.72,7.18c0-.37-.09-.66-.27-.86s-.42-.31-.73-.31-.56.11-.77.32-.34.5-.39.85h2.16Z"/>
  </g>
  <g>
    <polyline class="cls-2" points="29.98 1.07 29.98 29.98 1.07 29.98"/>
    <polyline class="cls-4" points=".5 29.41 .5 .5 29.41 .5"/>
  </g>
</svg>