<?xml version="1.0" encoding="UTF-8"?>
<svg id="Layer_1" data-name="Layer 1" xmlns="http://www.w3.org/2000/svg" viewBox="0 0 100 100">
  <defs>
    <style>
      .cls-1 {
        stroke-width: 2px;
      }

      .cls-1, .cls-2 {
        fill: none;
      }

      .cls-1, .cls-2, .cls-3 {
        stroke: #000;
      }

      .cls-2 {
        stroke-width: 3px;
      }

      .cls-4 {
        fill: #fcee21;
      }

      .cls-3 {
        fill-rule: evenodd;
        stroke-miterlimit: 10;
      }
    </style>
  </defs>
  <g id="Glass">
    <path class="cls-4" d="M50,99.5C22.71,99.5.5,77.29.5,50S22.71.5,50,.5s49.5,22.21,49.5,49.5-22.21,49.5-49.5,49.5Z"/>
    <path d="M50,1c27.02,0,49,21.98,49,49s-21.98,49-49,49S1,77.02,1,50,22.98,1,50,1M50,0C22.39,0,0,22.39,0,50s22.39,50,50,50,50-22.39,50-50S77.61,0,50,0h0Z"/>
  </g>
  <path id="sign_border" data-name="sign border" class="cls-1" d="M90.04,72.6L51.71,4.06c-.39-.7-1.11-1.12-1.88-1.12s-1.49.43-1.88,1.12L9.63,72.6c-.39.7-.39,1.55,0,2.23.39.7,1.11,1.12,1.88,1.12h76.66c.77,0,1.49-.43,1.88-1.12.39-.7.39-1.55,0-2.23Z"/>
  <ellipse id="inner_circle_cutout" data-name="inner circle cutout" cx="48.96" cy="51.18" rx="4.57" ry="4.66"/>
  <path id="path3437" class="cls-2" d="M53.02,50.86h23.31"/>
  <g id="g2231">
    <path id="path6145" class="cls-3" d="M49.3,51.07c.14-4.71.56-18.83.56-18.83h-1.68s.38,14.12.51,18.83"/>
    <path id="path7118" class="cls-3" d="M49.86,50.73c-4.62-.14-18.47-.57-18.47-.57v1.72s13.85-.39,18.47-.52"/>
    <path id="path7120" class="cls-3" d="M49.25,51.03c.14,4.71.56,18.83.56,18.83h-1.68s.38-14.12.51-18.83"/>
    <path id="path7122" class="cls-3" d="M49.66,51.13c-2.19-4.15-8.76-16.59-8.76-16.59l-1.46.86s7.27,12.03,9.69,16.04"/>
    <path id="path7124" class="cls-3" d="M49.87,51.24c-3.89-2.55-15.54-10.18-15.54-10.18l-.87,1.47s12.07,6.94,16.1,9.25"/>
    <path id="path7126" class="cls-3" d="M49.01,51.47c2.38-4.03,9.53-16.14,9.53-16.14l-1.47-.84s-6.45,12.5-8.6,16.67"/>
    <path id="path7128" class="cls-3" d="M48.58,51.53c4.04-2.29,16.15-9.15,16.15-9.15l-.86-1.47s-11.7,7.57-15.6,10.09"/>
    <path id="path7130" class="cls-3" d="M48.6,51c2.14,4.17,8.56,16.7,8.56,16.7l1.47-.84s-7.12-12.12-9.49-16.16"/>
    <path id="path7132" class="cls-3" d="M48.36,50.96c3.9,2.53,15.58,10.12,15.58,10.12l.86-1.48s-12.1-6.89-16.13-9.18"/>
    <path id="path7134" class="cls-3" d="M49.58,50.36c-4.05,2.27-16.19,9.08-16.19,9.08l.86,1.48s11.73-7.52,15.64-10.02"/>
    <path id="path7136" class="cls-3" d="M49.13,50.75c-2.41,4.02-9.64,16.08-9.64,16.08l1.46.85s6.53-12.46,8.71-16.62"/>
    <path id="path7140" class="cls-3" d="M48.92,50.09c-.89,3.25-3.58,13.01-3.58,13.01l1.17.3s2.12-9.9,2.83-13.2"/>
    <path id="path7142" class="cls-3" d="M49.65,50.04c-2.36,2.37-9.45,9.47-9.45,9.47l.87.85s6.67-7.51,8.9-10.01"/>
    <path id="path7144" class="cls-3" d="M50.4,50.72c-3.24.71-12.96,2.84-12.96,2.84l.29,1.2s9.58-2.7,12.77-3.6"/>
    <path id="path7146" class="cls-3" d="M50.48,51.51c-3.14-1.09-12.54-4.37-12.54-4.37l-.36,1.18s9.58,2.71,12.77,3.62"/>
    <path id="path7148" class="cls-3" d="M50,51.75c-2.22-2.51-8.88-10.03-8.88-10.03l-.87.85s7.08,7.11,9.44,9.49"/>
    <path id="path7150" class="cls-3" d="M49.45,52.05c-.73-3.3-2.91-13.18-2.91-13.18l-1.17.31s2.74,9.74,3.65,12.99"/>
    <path id="path7152" class="cls-3" d="M49.02,52.13c.89-3.25,3.57-13.01,3.57-13.01l-1.17-.3-2.82,13.2"/>
    <path id="path7154" class="cls-3" d="M48.47,52.05c2.33-2.4,9.32-9.6,9.32-9.6l-.88-.84s-6.57,7.6-8.76,10.14"/>
    <path id="path7156" class="cls-3" d="M47.75,51.65c3.21-.84,12.83-3.37,12.83-3.37l-.34-1.18s-9.47,3.09-12.62,4.12"/>
    <path id="path7158" class="cls-3" d="M47.85,50.96c3.17.97,12.69,3.88,12.69,3.88l.31-1.19-12.89-3.12"/>
    <path id="path7160" class="cls-3" d="M48.14,50.6c2.25,2.48,9,9.92,9,9.92l.86-.86-9.55-9.37"/>
    <path id="path7162" class="cls-3" d="M48.68,50.22c.72,3.3,2.87,13.19,2.87,13.19l1.17-.3s-2.71-9.75-3.62-13"/>
  </g>
</svg>